<svg xmlns="http://www.w3.org/2000/svg" viewBox="0 0 203 203" width="203" height="203">
	<g id="Layer 1">
		<g id="&lt;Group&gt;">
			<path id="&lt;Path&gt;" class="shp0" d="M197.43 65.87C197.26 69.36 194.3 72.05 190.81 71.88L43.14 64.88C39.65 64.7 36.96 61.74 37.12 58.25L37.75 45.15C37.91 41.66 40.87 38.96 44.36 39.13L192.03 46.14C195.52 46.31 198.21 49.27 198.05 52.76L197.43 65.87Z" />
			<path id="&lt;Path&gt;" class="shp1" d="M148.89 113.83C148.89 115.93 147.19 117.62 145.1 117.62L25 117.62C22.9 117.62 21.2 115.93 21.2 113.83L21.2 95.06C21.2 92.96 22.9 91.27 25 91.27L145.1 91.27C147.19 91.27 148.89 92.96 148.89 95.06L148.89 113.83Z" />
			<path id="&lt;Path&gt;" class="shp2" d="M185.83 134.12C185.9 136.22 184.31 137.97 182.28 138.04L46.78 142.26C44.75 142.32 43.05 140.67 42.99 138.58L42.64 127.43C42.57 125.34 44.16 123.58 46.2 123.52L181.7 119.3C183.72 119.23 185.42 120.88 185.49 122.97L185.83 134.12Z" />
			<path id="&lt;Path&gt;" class="shp3" d="M167.63 156.78C167.63 158.88 166.04 160.58 164.06 160.58L34.72 160.58C32.75 160.58 31.16 158.88 31.16 156.78L31.16 149.34C31.16 147.24 32.75 145.54 34.72 145.54L164.06 145.54C166.04 145.54 167.63 147.24 167.63 149.34L167.63 156.78Z" />
			<path id="&lt;Path&gt;" class="shp4" d="M170.96 82.23C170.96 83.77 168.67 85.03 165.84 85.03L8.99 85.03C6.17 85.03 3.88 83.77 3.88 82.23L3.88 76.16C3.88 74.61 6.17 73.35 8.99 73.35L165.84 73.35C168.67 73.35 170.96 74.61 170.96 76.16L170.96 82.23Z" />
		</g>
	</g>
</svg>